<?xml version="1.0" encoding="UTF-8"?>
<svg id="Layer_2" data-name="Layer 2" xmlns="http://www.w3.org/2000/svg" xmlns:xlink="http://www.w3.org/1999/xlink" viewBox="0 0 1084.49 657.36">
  <defs>
    <style>
      .cls-1 {
        letter-spacing: 0em;
      }

      .cls-2 {
        fill: #f7f7f7;
        font-family: AlanSans-ExtraBold, 'Alan Sans';
        font-size: 25.42px;
        font-weight: 700;
      }

      .cls-3 {
        letter-spacing: 0em;
      }

      .cls-4 {
        letter-spacing: -.01em;
      }

      .cls-5 {
        stroke-miterlimit: 10;
        stroke-width: 2.5px;
      }

      .cls-5, .cls-6 {
        fill: none;
        stroke: #eee;
      }

      .cls-7 {
        letter-spacing: -.01em;
      }

      .cls-8 {
        fill: #e87e24;
      }

      .cls-9 {
        letter-spacing: -.01em;
      }

      .cls-10 {
        fill: #265888;
      }

      .cls-11 {
        fill: #5d29f0;
        fill-rule: evenodd;
      }

      .cls-12 {
        letter-spacing: 0em;
      }

      .cls-13 {
        letter-spacing: -.01em;
      }

      .cls-14 {
        letter-spacing: 0em;
      }

      .cls-6 {
        stroke-linecap: round;
        stroke-linejoin: round;
        stroke-width: 5px;
      }

      .cls-15 {
        letter-spacing: -.01em;
      }

      .cls-16 {
        fill: #fff;
      }

      .cls-17 {
        letter-spacing: -.01em;
      }

      .cls-18 {
        letter-spacing: 0em;
      }

      .cls-19 {
        letter-spacing: -.02em;
      }

      .cls-20 {
        letter-spacing: 0em;
      }

      .cls-21 {
        letter-spacing: 0em;
      }

      .cls-22 {
        letter-spacing: -.01em;
      }

      .cls-23 {
        letter-spacing: 0em;
      }

      .cls-24 {
        letter-spacing: -.02em;
      }

      .cls-25 {
        letter-spacing: -.05em;
      }

      .cls-26 {
        letter-spacing: -.01em;
      }

      .cls-27 {
        letter-spacing: -.02em;
      }

      .cls-28 {
        letter-spacing: 0em;
      }

      .cls-29 {
        letter-spacing: -.01em;
      }

      .cls-30 {
        letter-spacing: -.02em;
      }

      .cls-31 {
        letter-spacing: 0em;
      }

      .cls-32 {
        fill: url(#linear-gradient);
      }

      .cls-33 {
        letter-spacing: 0em;
      }
    </style>
    <linearGradient id="linear-gradient" x1="240.42" y1="358.61" x2="324.43" y2="324.29" gradientTransform="translate(0 675.58) scale(1 -1)" gradientUnits="userSpaceOnUse">
      <stop offset="0" stop-color="#e2eaef"/>
      <stop offset=".3" stop-color="#e6ebee"/>
      <stop offset="1" stop-color="#ebeded"/>
    </linearGradient>
  </defs>
  <g id="Layer_2-2" data-name="Layer 2">
    <rect class="cls-5" x="1.25" y="1.25" width="1081.99" height="654.86" rx="30" ry="30"/>
    <g id="Layer_1-2" data-name="Layer 1-2">
      <path class="cls-32" d="M371.75,344.62c0,16.73-13.55,30.29-30.29,30.29h-90.38c-16.73,0-30.29-13.55-30.29-30.29,0-14.7,10.47-26.93,24.34-29.7,6.07-17.96,23.04-30.87,43.03-30.87s37.64,13.44,43.39,31.95c3.1-1.08,6.44-1.67,9.9-1.67,16.73,0,30.29,13.55,30.29,30.29Z"/>
      <g id="g1317">
        <g id="g1307">
          <path id="path1305" class="cls-16" d="M276.15,337.53c.35-6.26,3.42-11.79,8.04-15.7,4.54-3.85,10.65-6.2,17.32-6.2s12.78,2.35,17.3,6.2c4.62,3.91,7.69,9.44,8.04,15.7.35,6.44-2.24,12.43-6.77,16.84-4.62,4.51-11.22,7.34-18.59,7.34s-13.97-2.83-18.59-7.34c-4.54-4.43-7.12-10.41-6.77-16.84h.02Z"/>
        </g>
        <g id="g1311">
          <path id="path1309" class="cls-10" d="M289.14,338.12c.17-3.07,1.67-5.75,3.92-7.66,2.21-1.87,5.2-3.02,8.45-3.02s6.23,1.14,8.45,3.02c2.26,1.91,3.75,4.61,3.92,7.66.17,3.15-1.1,6.07-3.31,8.23-2.26,2.21-5.48,3.59-9.07,3.59s-6.82-1.38-9.07-3.59c-2.22-2.16-3.48-5.08-3.31-8.23h0Z"/>
        </g>
        <g id="g1315">
          <path id="path1313" class="cls-8" d="M269.42,344.3c.02,1.19.4,3.53.97,5.34,1.21,3.85,3.24,7.4,6.09,10.53,2.91,3.23,6.5,5.82,10.65,7.64,4.35,1.92,9.07,2.91,13.98,2.91s9.61-1.02,13.98-2.96c4.15-1.86,7.74-4.45,10.65-7.67,2.84-3.15,4.88-6.71,6.09-10.55.6-1.94.99-3.91,1.14-5.9.14-1.95.08-3.91-.19-5.85-.54-3.8-1.86-7.37-3.88-10.61-1.86-2.99-4.24-5.61-7.09-7.8h0l-28.65-22.01s-.05-.05-.08-.06c-1.87-1.45-5.04-1.45-7.1,0-2.1,1.46-2.34,3.88-.48,5.4h0l11.95,9.72-36.42.03h-.05c-3,0-5.91,1.99-6.48,4.48-.59,2.54,1.46,4.66,4.59,4.67h0l18.46-.03-32.94,25.28s-.08.06-.13.1c-3.11,2.38-4.12,6.34-2.16,8.83,1.99,2.54,6.21,2.56,9.34,0l17.99-14.71s-.25,1.99-.24,3.18h0v.03ZM315.62,350.96c-3.7,3.78-8.9,5.91-14.51,5.93-5.62,0-10.81-2.11-14.51-5.88-1.81-1.84-3.15-3.96-3.96-6.2-.81-2.21-1.11-4.56-.91-6.93.19-2.32.89-4.53,1.99-6.51,1.08-1.97,2.57-3.73,4.4-5.24,3.61-2.94,8.18-4.53,12.98-4.53s9.37,1.57,12.98,4.5c1.83,1.49,3.32,3.26,4.4,5.23,1.11,2,1.8,4.19,1.99,6.51.21,2.37-.11,4.7-.91,6.93-.83,2.26-2.15,4.37-3.96,6.21h0v-.02Z"/>
        </g>
      </g>
    </g>
    <g>
      <path class="cls-6" d="M526.35,328.68h31.78s-31.78,0-31.78,0Z"/>
      <line class="cls-6" x1="542.24" y1="312.79" x2="542.24" y2="344.57"/>
    </g>
    <path class="cls-11" d="M793.76,358.54c5-2.88,8.08-8.2,8.08-13.96v-31.79c0-5.76-3.08-11.08-8.08-13.96l-27.6-15.89c-5-2.88-11.16-2.88-16.16,0l-27.6,15.89c-5,2.88-8.08,8.2-8.08,13.96v31.79c0,5.76,3.08,11.08,8.08,13.96l27.6,15.89c5,2.88,11.16,2.88,16.16,0l27.6-15.89ZM793.76,344.57c0,2.88-1.54,5.54-4.04,6.98l-14.44,8.32c-1.27.73-1.91,1.1-2.43,1.05-.46-.05-.87-.29-1.14-.66-.31-.42-.31-1.16-.31-2.62v-16.64c0-2.88,1.54-5.54,4.04-6.98l7.73-4.45c1.06-.61,1.59-.92,1.98-1.35.34-.38.6-.82.76-1.31.18-.55.18-1.16.17-2.38v-.37c0-1.83,0-2.74-.39-3.27-.34-.46-.85-.76-1.42-.82-.65-.07-1.45.39-3.03,1.3l-9.83,5.66c-5,2.88-8.08,8.2-8.08,13.96v24.39c0,.85-.45,1.64-1.19,2.06-2.5,1.44-5.58,1.44-8.08,0l-27.6-15.89c-2.5-1.44-4.04-4.1-4.04-6.98v-16.39c0-1.47,0-2.2.31-2.62.27-.37.68-.61,1.14-.66.52-.05,1.16.31,2.43,1.05l14.14,8.15c2.5,1.44,4.04,4.1,4.04,6.98v8.48c0,1.22,0,1.83.18,2.38.16.48.42.93.76,1.31.39.43.92.73,1.98,1.34l.32.18c1.59.91,2.38,1.37,3.04,1.3.57-.06,1.09-.36,1.42-.82.39-.53.39-1.44.39-3.27v-10.9c0-5.76-3.08-11.08-8.08-13.96l-20.65-11.89c-.87-.5-1.41-1.43-1.41-2.44,0-2.88,1.54-5.54,4.04-6.98l27.6-15.89c2.5-1.44,5.58-1.44,8.08,0l14.29,8.23c1.27.73,1.91,1.1,2.12,1.58.19.42.19.89,0,1.31-.21.48-.85.85-2.12,1.58l-14.51,8.36c-2.5,1.44-5.58,1.44-8.08,0l-8.13-4.68c-.81-.47-1.21-.7-1.64-.79-.38-.08-.78-.09-1.16,0-.43.09-.84.31-1.66.76l-1.01.56c-1.63.9-2.45,1.36-2.73,1.96-.24.52-.25,1.12-.01,1.65.27.6,1.08,1.07,2.69,2l9.6,5.53c5,2.88,11.16,2.88,16.16,0l21.08-12.14c.83-.48,1.86-.48,2.7,0,2.5,1.44,4.04,4.1,4.04,6.98v31.79Z"/>
    <text class="cls-2" transform="translate(108.28 443.66)"><tspan class="cls-21" x="0" y="0">C</tspan><tspan class="cls-13" x="16.68" y="0">l</tspan><tspan class="cls-18" x="24.31" y="0">ou</tspan><tspan class="cls-20" x="54.1" y="0">d </tspan><tspan class="cls-12" x="76.04" y="0">B</tspan><tspan class="cls-26" x="93.71" y="0">l</tspan><tspan class="cls-31" x="101.34" y="0">e</tspan><tspan class="cls-18" x="115.47" y="0">n</tspan><tspan class="cls-7" x="130.45" y="0">d</tspan><tspan class="cls-31" x="145.55" y="0">e</tspan><tspan x="159.69" y="0">r </tspan><tspan class="cls-26" x="177.58" y="0">R</tspan><tspan class="cls-21" x="194.87" y="0">e</tspan><tspan class="cls-18" x="209.01" y="0">n</tspan><tspan class="cls-15" x="223.98" y="0">d</tspan><tspan class="cls-21" x="239.08" y="0">e</tspan><tspan x="253.22" y="0">r </tspan><tspan class="cls-18" x="271.12" y="0">i</tspan><tspan x="277.98" y="0">s a </tspan><tspan class="cls-28" x="318.18" y="0">f</tspan><tspan class="cls-17" x="328.9" y="0">r</tspan><tspan class="cls-18" x="339.94" y="0">e</tspan><tspan x="354.05" y="0">e </tspan><tspan class="cls-21" x="26.77" y="30.51">a</tspan><tspan class="cls-18" x="40.93" y="30.51">n</tspan><tspan x="55.91" y="30.51">d </tspan><tspan class="cls-13" x="77.85" y="30.51">o</tspan><tspan x="92.8" y="30.51">p</tspan><tspan class="cls-21" x="108.23" y="30.51">e</tspan><tspan x="122.36" y="30.51">n </tspan><tspan class="cls-21" x="143.95" y="30.51">s</tspan><tspan class="cls-18" x="156.81" y="30.51">ou</tspan><tspan class="cls-29" x="186.61" y="30.51">r</tspan><tspan class="cls-23" x="197.67" y="30.51">c</tspan><tspan x="210.94" y="30.51">e </tspan><tspan class="cls-21" x="231.66" y="30.51">s</tspan><tspan class="cls-27" x="244.52" y="30.51">o</tspan><tspan x="259.24" y="30.51">f</tspan><tspan class="cls-12" x="270.23" y="30.51">t</tspan><tspan class="cls-24" x="281.18" y="30.51">w</tspan><tspan class="cls-21" x="302.08" y="30.51">a</tspan><tspan class="cls-13" x="316.24" y="30.51">r</tspan><tspan x="327.27" y="30.51">e</tspan></text>
    <text class="cls-2" transform="translate(644.52 443.66)"><tspan x="0" y="0">R</tspan><tspan class="cls-18" x="17.64" y="0">un</tspan><tspan x="47.21" y="0">pod </tspan><tspan class="cls-18" x="99.89" y="0">i</tspan><tspan x="106.75" y="0">s t</tspan><tspan class="cls-18" x="137.18" y="0">h</tspan><tspan x="152.16" y="0">e </tspan><tspan class="cls-21" x="172.88" y="0">G</tspan><tspan class="cls-1" x="191.64" y="0">P</tspan><tspan x="208.96" y="0">U </tspan><tspan class="cls-23" x="-20.4" y="30.51">i</tspan><tspan class="cls-9" x="-13.57" y="30.51">n</tspan><tspan class="cls-4" x="1.13" y="30.51">f</tspan><tspan class="cls-14" x="11.86" y="30.51">r</tspan><tspan class="cls-30" x="23.12" y="30.51">a</tspan><tspan x="36.93" y="30.51">t</tspan><tspan class="cls-12" x="47.91" y="30.51">r</tspan><tspan class="cls-23" x="59.27" y="30.51">u</tspan><tspan class="cls-3" x="73.84" y="30.51">c</tspan><tspan x="87.44" y="30.51">t</tspan><tspan class="cls-18" x="98.42" y="30.51">u</tspan><tspan class="cls-13" x="113.02" y="30.51">r</tspan><tspan x="124.05" y="30.51">e </tspan><tspan class="cls-29" x="144.77" y="30.51">pr</tspan><tspan class="cls-25" x="170.93" y="30.51">o</tspan><tspan class="cls-19" x="185.07" y="30.51">v</tspan><tspan class="cls-22" x="200.22" y="30.51">i</tspan><tspan class="cls-29" x="206.91" y="30.51">d</tspan><tspan class="cls-33" x="222.01" y="30.51">e</tspan><tspan x="236.15" y="30.51">r</tspan></text>
  </g>
</svg>